<svg xmlns="http://www.w3.org/2000/svg" xmlns:xlink="http://www.w3.org/1999/xlink" viewBox="0 0 715.93 747.55"><defs><style>.cls-1{fill:url(#linear-gradient);}.cls-2{fill:url(#linear-gradient-2);}.cls-3{fill:url(#linear-gradient-3);}.cls-4{fill:url(#linear-gradient-4);}.cls-5{fill:#fff;}.cls-6{fill:#c3d7ed;}.cls-7{fill:url(#linear-gradient-5);}.cls-8{fill:url(#linear-gradient-6);}.cls-9{fill:#eef3f9;}.cls-10{fill:url(#linear-gradient-7);}.cls-11{fill:url(#linear-gradient-8);}.cls-12{fill:url(#linear-gradient-9);}.cls-13{fill:url(#linear-gradient-10);}</style><linearGradient id="linear-gradient" x1="-234.85" y1="365.39" x2="281.82" y2="365.39" gradientTransform="translate(726.29 11.22) rotate(90)" gradientUnits="userSpaceOnUse"><stop offset="0.17" stop-color="#2b358f"/><stop offset="0.35" stop-color="#284399"/><stop offset="0.54" stop-color="#1f59a5"/><stop offset="0.65" stop-color="#1e75b1"/><stop offset="0.94" stop-color="#1b9ac4"/><stop offset="1" stop-color="#1ca3c9"/></linearGradient><linearGradient id="linear-gradient-2" x1="372.35" y1="365.39" x2="820.97" y2="365.39" gradientTransform="translate(726.29 11.22) rotate(90)" gradientUnits="userSpaceOnUse"><stop offset="0.17" stop-color="#2b358f"/><stop offset="0.35" stop-color="#284399"/><stop offset="0.54" stop-color="#1f59a5"/><stop offset="0.74" stop-color="#1e75b1"/><stop offset="0.94" stop-color="#1b9ac4"/><stop offset="1" stop-color="#1ca3c9"/></linearGradient><linearGradient id="linear-gradient-3" x1="-1730.24" y1="367.44" x2="372.35" y2="367.44" gradientTransform="translate(726.29 11.22) rotate(90)" gradientUnits="userSpaceOnUse"><stop offset="0" stop-color="#1e75b1"/><stop offset="0.5" stop-color="#1b9ac4"/><stop offset="1" stop-color="#1ca3c9"/></linearGradient><linearGradient id="linear-gradient-4" x1="372.35" y1="363.35" x2="2474.94" y2="363.35" gradientTransform="translate(726.29 11.22) rotate(90)" gradientUnits="userSpaceOnUse"><stop offset="0" stop-color="#2b358f"/><stop offset="0.51" stop-color="#284399"/><stop offset="1" stop-color="#1f59a5"/></linearGradient><linearGradient id="linear-gradient-5" x1="-23.58" y1="434.7" x2="-6.28" y2="434.7" gradientTransform="translate(597.16 317.84) rotate(135)" gradientUnits="userSpaceOnUse"><stop offset="0" stop-color="#f5f8fc"/><stop offset="1" stop-color="#d9e4f4"/></linearGradient><linearGradient id="linear-gradient-6" x1="534.47" y1="29.64" x2="551.77" y2="29.64" gradientTransform="translate(726.29 11.22) rotate(90)" xlink:href="#linear-gradient-5"/><linearGradient id="linear-gradient-7" x1="309.27" y1="383.24" x2="332.58" y2="383.24" gradientTransform="matrix(1, 0, 0, 1, 0, 0)" xlink:href="#linear-gradient-4"/><linearGradient id="linear-gradient-8" x1="334.25" y1="383.24" x2="362.74" y2="383.24" gradientTransform="matrix(1, 0, 0, 1, 0, 0)" xlink:href="#linear-gradient-4"/><linearGradient id="linear-gradient-9" x1="364.3" y1="383.24" x2="387.62" y2="383.24" gradientTransform="matrix(1, 0, 0, 1, 0, 0)" xlink:href="#linear-gradient-4"/><linearGradient id="linear-gradient-10" x1="391.85" y1="383.24" x2="412.22" y2="383.24" gradientTransform="matrix(1, 0, 0, 1, 0, 0)" xlink:href="#linear-gradient-4"/></defs><g id="Layer_2" data-name="Layer 2"><g id="Layer_1-2" data-name="Layer 1"><circle class="cls-1" cx="360.9" cy="383.57" r="258.34"/><path class="cls-2" d="M102.56,383.57c0,142.67,115.66,258.33,258.34,258.33S619.23,526.24,619.23,383.57Z"/><path class="cls-3" d="M163.52,186.19a279.17,279.17,0,0,1,472.37,149.3l30.63,48.08,22.4-52.26A332.13,332.13,0,0,0,28.77,383.57l26.5-37.85,26.49,37.85A277.32,277.32,0,0,1,163.52,186.19Z"/><path class="cls-4" d="M490.18,689.58A331.87,331.87,0,0,0,693,383.57l-26.5,37.85L640,383.57A279.15,279.15,0,0,1,85.9,431.65L55.27,383.57l-22.4,52.25A332.35,332.35,0,0,0,490.18,689.58Z"/><path class="cls-5" d="M205.17,139.06l-3.84,2.67-20.74-8.84,10.88,15.68-3.84,2.67-15.34-22.11,3.84-2.67,20.81,8.89L186,119.6l3.81-2.64Z"/><path class="cls-5" d="M218.17,131.85a9.29,9.29,0,0,1-7.34,1.12,9.76,9.76,0,0,1-5.87-4.89l-.27-.48a12,12,0,0,1-1.67-5.21,8.85,8.85,0,0,1,1-4.8,8.61,8.61,0,0,1,3.39-3.46,7.86,7.86,0,0,1,6.77-.89q3.22,1.16,5.61,5.29l.9,1.57-11.33,6.51a6,6,0,0,0,3.39,2.57,5,5,0,0,0,3.88-.57,6.1,6.1,0,0,0,3.12-4.67l3.25.8a8.14,8.14,0,0,1-1.4,4A10,10,0,0,1,218.17,131.85Zm-9-14.59a3.78,3.78,0,0,0-1.94,2.61,6.65,6.65,0,0,0,.54,3.85l7.41-4.26-.16-.29a5.48,5.48,0,0,0-2.74-2.36A3.75,3.75,0,0,0,209.17,117.26Z"/><path class="cls-5" d="M223.07,100.72l2.16,4.35,3.16-1.57,1.48,3-3.16,1.57,5,10a2.44,2.44,0,0,0,1.14,1.28,2.1,2.1,0,0,0,1.67-.26,6.9,6.9,0,0,0,1.33-.87l1.54,3.12A11.26,11.26,0,0,1,234.9,123q-4.64,2.31-7.17-2.81l-5-10.15-2.95,1.46-1.48-3,3-1.46-2.16-4.35Z"/><path class="cls-5" d="M255.2,107l-2.26-14L257,91.36l2.48,20.58-3.42,1.39-9.15-11.1,1.27,14.31-3.42,1.39-12.6-16.46,4.05-1.65,8.15,11.43L243,97.05l3.13-1.27Z"/><path class="cls-5" d="M264.55,99.28a11.76,11.76,0,0,1-.43-5.41,8.46,8.46,0,0,1,2.07-4.42,9.18,9.18,0,0,1,4.26-2.62,8.71,8.71,0,0,1,7,.57,10.25,10.25,0,0,1,4.63,5.81l.33,1a12,12,0,0,1,.45,5.38,8.38,8.38,0,0,1-2.06,4.4,9.23,9.23,0,0,1-4.3,2.65,8.69,8.69,0,0,1-7.3-.72,10.82,10.82,0,0,1-4.63-6.44Zm4.41-.94a8.12,8.12,0,0,0,2.63,4.25,4.16,4.16,0,0,0,3.9.63,4.09,4.09,0,0,0,2.87-2.73,8.9,8.9,0,0,0-.31-5.34,7.9,7.9,0,0,0-2.65-4.21,4.38,4.38,0,0,0-6.73,2A8.77,8.77,0,0,0,269,98.34Z"/><path class="cls-5" d="M296.62,84.58a11.69,11.69,0,0,0-1.81.28,4.11,4.11,0,0,0-3.5,3.26l3.14,13.31-4.37,1L285.48,83l4.18-1,.62,2.15a5,5,0,0,1,3.79-3.57,4.14,4.14,0,0,1,1.6-.11Z"/><path class="cls-5" d="M309.1,89.67,307.48,92l1.1,6.43-4.42.76-4.81-28,4.42-.76,2.78,16.14,1.08-2L312,77.57l5.32-.91-5.91,9.47,10.09,10.1-5.12.88Z"/><path class="cls-5" d="M332.39,85.42l-9.65,1.07-.4-3.6L332,81.82Z"/><path class="cls-5" d="M350.19,93.91a6.71,6.71,0,0,1-.61-1.83,7.57,7.57,0,0,1-10.13,1A5.5,5.5,0,0,1,337.33,89a5.71,5.71,0,0,1,2.13-5q2.3-1.83,6.7-2.05l2.75-.13-.07-1.31a3.48,3.48,0,0,0-1-2.44,3.4,3.4,0,0,0-2.68-.8,4,4,0,0,0-2.48.89,2.39,2.39,0,0,0-.88,2l-4.48.22a5,5,0,0,1,.93-3.13,7.34,7.34,0,0,1,2.85-2.39,10.52,10.52,0,0,1,4.14-1,8.4,8.4,0,0,1,5.68,1.48,6.29,6.29,0,0,1,2.39,4.85l.46,9a10.19,10.19,0,0,0,1,4.26v.31Zm-5.09-3a5,5,0,0,0,2.46-.77,4.37,4.37,0,0,0,1.68-1.82l-.19-3.77-2.42.12a6.59,6.59,0,0,0-3.7,1.06,2.79,2.79,0,0,0-1.13,2.52,2.59,2.59,0,0,0,1,2A3.34,3.34,0,0,0,345.1,90.93Z"/><path class="cls-5" d="M371.1,88.46a2,2,0,0,0-.94-1.85,10.82,10.82,0,0,0-3.26-1.18,16.45,16.45,0,0,1-3.8-1.3c-2.22-1.13-3.3-2.73-3.26-4.78a5.33,5.33,0,0,1,2.27-4.28,8.6,8.6,0,0,1,5.58-1.62,9,9,0,0,1,5.76,1.9A5.64,5.64,0,0,1,375.56,80l-4.49-.1a2.76,2.76,0,0,0-.92-2.17,3.65,3.65,0,0,0-2.53-.91,3.86,3.86,0,0,0-2.42.63,2.14,2.14,0,0,0-1,1.81,1.82,1.82,0,0,0,.84,1.62,11.58,11.58,0,0,0,3.48,1.23,16.54,16.54,0,0,1,4.12,1.48,5.92,5.92,0,0,1,2.19,2,4.87,4.87,0,0,1,.68,2.75,5.22,5.22,0,0,1-2.33,4.32,9.59,9.59,0,0,1-5.9,1.55,10.4,10.4,0,0,1-4.36-1A7.11,7.11,0,0,1,360,90.7a5.83,5.83,0,0,1-1-3.37l4.36.1a3.15,3.15,0,0,0,1.15,2.47,4.63,4.63,0,0,0,2.92.92,4.54,4.54,0,0,0,2.71-.61A2.07,2.07,0,0,0,371.1,88.46Z"/><path class="cls-5" d="M389.88,85.47l-9.68-.78.29-3.61,9.68.78Z"/><path class="cls-5" d="M405.76,97.18a6.38,6.38,0,0,1-.25-1.92,7.56,7.56,0,0,1-10.14-.91,5.49,5.49,0,0,1-1.29-4.48,5.66,5.66,0,0,1,3-4.52q2.6-1.36,7-.74l2.72.38.19-1.3a3.51,3.51,0,0,0-.52-2.58A3.39,3.39,0,0,0,404,79.82a4,4,0,0,0-2.6.4,2.37,2.37,0,0,0-1.24,1.8l-4.45-.63a5,5,0,0,1,1.51-2.9,7.42,7.42,0,0,1,3.26-1.81,10.34,10.34,0,0,1,4.25-.21A8.39,8.39,0,0,1,410,79a6.28,6.28,0,0,1,1.43,5.21l-1.27,8.93a10.24,10.24,0,0,0,.15,4.37l0,.32Zm-4.44-3.89a5.12,5.12,0,0,0,2.57-.29,4.41,4.41,0,0,0,2-1.47l.53-3.74-2.4-.34a6.61,6.61,0,0,0-3.84.34A2.81,2.81,0,0,0,398.59,90a2.66,2.66,0,0,0,.56,2.17A3.39,3.39,0,0,0,401.32,93.29Z"/><path class="cls-5" d="M425.73,91.14l-9.51-1.94.73-3.55,9.51,1.94Z"/><path class="cls-5" d="M444.34,98.7a3.25,3.25,0,0,0-.48-3A15,15,0,0,0,440,92.68a22.21,22.21,0,0,1-4.42-3.47q-2.94-3.21-1.95-6.79a6.55,6.55,0,0,1,4-4.47,10.76,10.76,0,0,1,7.2-.21,11.6,11.6,0,0,1,4.55,2.32,8.19,8.19,0,0,1,2.56,3.76,7.56,7.56,0,0,1,.09,4.42L447.54,87a4.22,4.22,0,0,0-.41-3.53,5.44,5.44,0,0,0-3.33-2.15,5.7,5.7,0,0,0-3.69,0,3.25,3.25,0,0,0-1.94,2.3,2.94,2.94,0,0,0,.67,2.74,15.62,15.62,0,0,0,3.84,3.05A20.78,20.78,0,0,1,447,92.81a8.05,8.05,0,0,1,2,3.37,7.27,7.27,0,0,1-.1,3.72,6.42,6.42,0,0,1-3.9,4.48,11.12,11.12,0,0,1-7.27.07,13.09,13.09,0,0,1-4.9-2.46,9,9,0,0,1-2.88-3.88,7.41,7.41,0,0,1-.14-4.64l4.51,1.23a4.39,4.39,0,0,0,.52,3.83,6.7,6.7,0,0,0,3.86,2.36,5.75,5.75,0,0,0,3.8,0A3.21,3.21,0,0,0,444.34,98.7Z"/><path class="cls-5" d="M459.63,111.46a9.28,9.28,0,0,1-5.6-4.88,9.75,9.75,0,0,1-.07-7.64l.19-.52a12.12,12.12,0,0,1,2.9-4.64,8.77,8.77,0,0,1,4.3-2.35,8.52,8.52,0,0,1,4.83.35,7.84,7.84,0,0,1,5.05,4.59q1.22,3.21-.41,7.69l-.61,1.7-12.29-4.43a6,6,0,0,0,.22,4.25,5,5,0,0,0,2.95,2.59,6.05,6.05,0,0,0,5.57-.64l1.5,3a8,8,0,0,1-4,1.52A10,10,0,0,1,459.63,111.46Zm5.31-16.3a3.8,3.8,0,0,0-3.25.2,6.71,6.71,0,0,0-2.59,2.9l8,2.91.11-.32a5.42,5.42,0,0,0,0-3.61A3.72,3.72,0,0,0,464.94,95.16Z"/><path class="cls-5" d="M487.44,105.23a11.3,11.3,0,0,0-1.62-.86,4.11,4.11,0,0,0-4.75.52l-5.44,12.55-4.12-1.78,7.95-18.36L483.39,99l-.78,2.09a5.07,5.07,0,0,1,5.17-.6,4.43,4.43,0,0,1,1.36.87Z"/><path class="cls-5" d="M493.9,119.73l10.24-10.84,4.14,2.1-15.23,14.7-3.47-1.77,2.81-21,4.15,2.11Z"/><path class="cls-5" d="M506.79,133.25l-3.9-2.25,10-17.32,3.89,2.24ZM515.23,109a2.34,2.34,0,0,1,1.43-1.16,2.47,2.47,0,0,1,2,.34,2.54,2.54,0,0,1,1.3,1.53,2.39,2.39,0,0,1-.29,1.83,2.31,2.31,0,0,1-1.42,1.13,3,3,0,0,1-3.26-1.88A2.34,2.34,0,0,1,515.23,109Z"/><path class="cls-5" d="M520.65,138.07a4.1,4.1,0,0,0,2.87.71,3.39,3.39,0,0,0,2.32-1.39l3.54,2.32A6.65,6.65,0,0,1,526.5,142a7.72,7.72,0,0,1-3.87.53,9,9,0,0,1-3.89-1.41,8.53,8.53,0,0,1-4.09-5.91,10.75,10.75,0,0,1,2-7.63l.25-.39a10.59,10.59,0,0,1,6-4.79,8.48,8.48,0,0,1,7.07,1.33,8.24,8.24,0,0,1,3.73,4.92,7.43,7.43,0,0,1-1,5.86l-3.54-2.31a4.14,4.14,0,0,0,.56-3,3.78,3.78,0,0,0-1.74-2.46,4,4,0,0,0-3.68-.51,8,8,0,0,0-3.63,3.36l-.39.61a8.16,8.16,0,0,0-1.67,4.7A4,4,0,0,0,520.65,138.07Z"/><path class="cls-5" d="M536.17,153.47a9.27,9.27,0,0,1-3.88-6.33,9.76,9.76,0,0,1,2.23-7.31l.33-.44a12.1,12.1,0,0,1,4.16-3.56,8.82,8.82,0,0,1,4.81-1,8.63,8.63,0,0,1,4.5,1.78,7.84,7.84,0,0,1,3.44,5.89q.19,3.42-2.69,7.22l-1.1,1.44-10.4-7.91a6,6,0,0,0-1.06,4.12,5,5,0,0,0,2,3.35,6.06,6.06,0,0,0,5.51,1.06l.52,3.31a8.18,8.18,0,0,1-4.23.27A10.07,10.07,0,0,1,536.17,153.47Zm10-14a3.83,3.83,0,0,0-3.16-.78,6.71,6.71,0,0,0-3.34,2l6.81,5.19.2-.27a5.37,5.37,0,0,0,1.11-3.44A3.75,3.75,0,0,0,546.12,139.51Z"/><path class="cls-5" d="M118.65,591.54l-3-3.63,7.21-21.36-14.79,12.07-3-3.63L126,558l3,3.63-7.24,21.44,14.85-12.12,2.93,3.6Z"/><path class="cls-5" d="M130.29,604.47a9.23,9.23,0,0,1-2.87-6.84,9.76,9.76,0,0,1,3.3-6.89l.4-.38a12.06,12.06,0,0,1,4.65-2.89,8.74,8.74,0,0,1,4.9-.21,8.58,8.58,0,0,1,4.18,2.43,7.89,7.89,0,0,1,2.51,6.35q-.33,3.42-3.76,6.73L142.3,604l-9.08-9.4a6,6,0,0,0-1.67,3.91,5,5,0,0,0,1.5,3.63,6.07,6.07,0,0,0,5.29,1.88l0,3.35a8.07,8.07,0,0,1-4.23-.38A10,10,0,0,1,130.29,604.47Zm12-12.29a3.78,3.78,0,0,0-3-1.24,6.65,6.65,0,0,0-3.6,1.46l5.94,6.15.24-.23a5.48,5.48,0,0,0,1.62-3.23A3.81,3.81,0,0,0,142.24,592.18Z"/><path class="cls-5" d="M161.8,599.87l-3.29,3.58,2.6,2.38-2.25,2.45-2.6-2.38-7.55,8.22a2.49,2.49,0,0,0-.78,1.53,2.08,2.08,0,0,0,.85,1.46,7.12,7.12,0,0,0,1.28.93l-2.35,2.56a10.87,10.87,0,0,1-2.47-1.69q-3.81-3.49,0-7.7l7.67-8.35-2.43-2.22,2.25-2.45,2.43,2.22,3.28-3.58Z"/><path class="cls-5" d="M170.13,631.13l11.06-8.85,3.44,2.71-16.69,12.3L165,635l5.16-13.43-11.82,8.15-2.9-2.29,8.12-19.08,3.43,2.72-5.94,12.72,11.7-8.17,2.65,2.1Z"/><path class="cls-5" d="M182.62,635.42a11.86,11.86,0,0,1,3.88-3.79,8.42,8.42,0,0,1,4.72-1.23A9.15,9.15,0,0,1,196,632a8.76,8.76,0,0,1,4.07,5.78,10.29,10.29,0,0,1-1.52,7.28L198,646a11.87,11.87,0,0,1-3.85,3.79,8.48,8.48,0,0,1-4.7,1.23,9.22,9.22,0,0,1-4.79-1.62,8.65,8.65,0,0,1-4.11-6.07,10.78,10.78,0,0,1,2-7.68Zm3.54,2.79a8.07,8.07,0,0,0-1.59,4.74,4.15,4.15,0,0,0,2,3.4,4.07,4.07,0,0,0,3.93.46,8.85,8.85,0,0,0,3.91-3.64,7.94,7.94,0,0,0,1.55-4.73,4.39,4.39,0,0,0-5.86-3.89A8.73,8.73,0,0,0,186.16,638.21Z"/><path class="cls-5" d="M215.44,648.93a11,11,0,0,0-1.52-1q-2.68-1.53-4.78,0l-6.77,11.88-3.9-2.22,9.89-17.38,3.73,2.12-1,2a5.07,5.07,0,0,1,5.21,0,4.14,4.14,0,0,1,1.25,1Z"/><path class="cls-5" d="M222.3,660.67l-2.7,1-2.87,5.86-4-2L225.21,640l4,2L222,656.7l2-1,7.7-3.16,4.85,2.38-10.35,4.21,2.24,14.09L223.84,671Z"/><path class="cls-5" d="M244.94,669.69,236,665.94l1.4-3.34,9,3.75Z"/><path class="cls-5" d="M263.44,679.29a3.27,3.27,0,0,0-.28-3,15.35,15.35,0,0,0-3.63-3.3,21.62,21.62,0,0,1-4.18-3.75c-1.81-2.25-2.32-4.55-1.51-6.89a6.56,6.56,0,0,1,4.26-4.2,10.66,10.66,0,0,1,7.19.25,11.63,11.63,0,0,1,4.4,2.61,8.28,8.28,0,0,1,2.31,3.92,7.59,7.59,0,0,1-.2,4.42l-4.4-1.52a4.18,4.18,0,0,0-.18-3.55,5.41,5.41,0,0,0-3.18-2.36,5.7,5.7,0,0,0-3.68-.24,3.27,3.27,0,0,0-2.09,2.17,3,3,0,0,0,.49,2.78,15.68,15.68,0,0,0,3.63,3.29,20.49,20.49,0,0,1,4.08,3.66,8,8,0,0,1,1.74,3.49,7.08,7.08,0,0,1-.34,3.71,6.38,6.38,0,0,1-4.18,4.21,11.13,11.13,0,0,1-7.26-.4,13.27,13.27,0,0,1-4.72-2.77,9,9,0,0,1-2.63-4.07,7.44,7.44,0,0,1,.17-4.63l4.42,1.52a4.35,4.35,0,0,0,.27,3.85,6.65,6.65,0,0,0,3.7,2.61,5.8,5.8,0,0,0,3.79.26A3.19,3.19,0,0,0,263.44,679.29Z"/><path class="cls-5" d="M280.83,691.89a9.25,9.25,0,0,1-6-4.34A9.71,9.71,0,0,1,274,680l.14-.53a12,12,0,0,1,2.46-4.89,8.78,8.78,0,0,1,4.06-2.74,8.65,8.65,0,0,1,4.84-.1A7.88,7.88,0,0,1,291,675.8q1.5,3.08.31,7.7l-.46,1.75L278.19,682a6,6,0,0,0,.62,4.21,5,5,0,0,0,3.17,2.31,6.08,6.08,0,0,0,5.49-1.15l1.77,2.84a8.07,8.07,0,0,1-3.81,1.89A10,10,0,0,1,280.83,691.89Zm3.79-16.71a3.77,3.77,0,0,0-3.22.5,6.66,6.66,0,0,0-2.31,3.12l8.28,2.15.09-.32a5.44,5.44,0,0,0-.31-3.6A3.73,3.73,0,0,0,284.62,675.18Z"/><path class="cls-5" d="M303.94,693.27a4.07,4.07,0,0,0,2.92-.46,3.35,3.35,0,0,0,1.6-2.17l4.16.76a6.55,6.55,0,0,1-1.77,3.22,7.69,7.69,0,0,1-3.37,2,8.85,8.85,0,0,1-4.13.2,8.59,8.59,0,0,1-6.06-3.87,10.85,10.85,0,0,1-1.07-7.83l.09-.45a10.57,10.57,0,0,1,3.71-6.75,8.43,8.43,0,0,1,7-1.5,8.14,8.14,0,0,1,5.34,3.09,7.42,7.42,0,0,1,1.34,5.79l-4.16-.76a4.14,4.14,0,0,0-.65-3,3.81,3.81,0,0,0-2.55-1.6,4,4,0,0,0-3.6.95,8.15,8.15,0,0,0-2,4.51l-.13.7a8.2,8.2,0,0,0,.28,5A4,4,0,0,0,303.94,693.27Z"/><path class="cls-5" d="M330.29,698.19a6.93,6.93,0,0,1-5.83,1.72,6.22,6.22,0,0,1-4.7-2.42,8.11,8.11,0,0,1-1.07-5.66L320.07,679l4.47.48-1.38,12.83c-.27,2.52.64,3.9,2.74,4.12s3.71-.38,4.64-1.86l1.53-14.28,4.47.48-2.14,19.89-4.21-.46Z"/><path class="cls-5" d="M353.11,685.65a10.65,10.65,0,0,0-1.82-.23c-2.06-.09-3.48.63-4.26,2.18l-.61,13.66-4.49-.2.9-20,4.28.19v2.24a5,5,0,0,1,4.62-2.4,4.27,4.27,0,0,1,1.58.33Z"/><path class="cls-5" d="M362.12,701.61l-4.49-.07.32-20,4.49.08Zm-4.36-25.26a2.4,2.4,0,0,1,.68-1.71,2.47,2.47,0,0,1,1.89-.65,2.53,2.53,0,0,1,1.88.71,2.39,2.39,0,0,1,.63,1.73,2.3,2.3,0,0,1-.69,1.68,2.51,2.51,0,0,1-1.9.64,2.46,2.46,0,0,1-1.86-.7A2.35,2.35,0,0,1,357.76,676.35Z"/><path class="cls-5" d="M374.57,676.42l.2,4.85,3.52-.14.14,3.33-3.53.14.45,11.15a2.49,2.49,0,0,0,.51,1.64,2.14,2.14,0,0,0,1.64.44,6.51,6.51,0,0,0,1.56-.25l.14,3.48a11.3,11.3,0,0,1-2.94.54c-3.44.14-5.24-1.7-5.4-5.5l-.45-11.32-3.29.13-.13-3.32,3.29-.14-.2-4.85Z"/><path class="cls-5" d="M391.73,693.65l2.74-13.89,4.76-.46L393.54,703c-.88,3.46-2.78,5.34-5.69,5.62a7.93,7.93,0,0,1-2.18-.13l-.34-3.47.85,0a4.42,4.42,0,0,0,2.49-.86,4.14,4.14,0,0,0,1.15-2.2l.48-1.77L381.39,681l4.82-.47Z"/><path class="cls-5" d="M413.69,687.53,404.1,689l-.55-3.57,9.59-1.49Z"/><path class="cls-5" d="M433.41,693.38a7.22,7.22,0,0,1-.9-1.72,7.56,7.56,0,0,1-9.82,2.67,5.48,5.48,0,0,1-2.76-3.75,5.67,5.67,0,0,1,1.27-5.3,11.5,11.5,0,0,1,6.28-3.11l2.69-.59-.28-1.28a3.53,3.53,0,0,0-1.38-2.25,3.47,3.47,0,0,0-2.78-.35,3.93,3.93,0,0,0-2.29,1.29,2.39,2.39,0,0,0-.55,2.11l-4.39,1a5,5,0,0,1,.42-3.24,7.2,7.2,0,0,1,2.42-2.83,10.5,10.5,0,0,1,3.91-1.68,8.41,8.41,0,0,1,5.85.53,6.32,6.32,0,0,1,3.15,4.39l1.92,8.82a10,10,0,0,0,1.66,4l.06.31Zm-5.51-2.11a5.08,5.08,0,0,0,2.31-1.17,4.3,4.3,0,0,0,1.36-2.07l-.8-3.69-2.37.52a6.58,6.58,0,0,0-3.48,1.65,2.79,2.79,0,0,0-.7,2.67,2.61,2.61,0,0,0,1.27,1.83A3.39,3.39,0,0,0,427.9,691.27Z"/><path class="cls-5" d="M454.05,682.19a2,2,0,0,0-1.46-1.47,10.51,10.51,0,0,0-3.46-.14,16.86,16.86,0,0,1-4-.08q-3.69-.62-4.56-3.57a5.3,5.3,0,0,1,.87-4.76,8.53,8.53,0,0,1,4.82-3.24,8.94,8.94,0,0,1,6.06.06,5.65,5.65,0,0,1,3.43,3.79l-4.31,1.27a2.79,2.79,0,0,0-1.53-1.79,3.63,3.63,0,0,0-2.69-.1,4,4,0,0,0-2.12,1.33,2.15,2.15,0,0,0-.38,2,1.82,1.82,0,0,0,1.29,1.3,11.9,11.9,0,0,0,3.69.11,16.94,16.94,0,0,1,4.38.16,5.83,5.83,0,0,1,2.69,1.22,4.85,4.85,0,0,1,1.47,2.41,5.22,5.22,0,0,1-.9,4.83,9.54,9.54,0,0,1-5.15,3.26,10.15,10.15,0,0,1-4.45.39,7.12,7.12,0,0,1-3.56-1.49,5.8,5.8,0,0,1-2-2.9l4.18-1.24a3.18,3.18,0,0,0,1.85,2,4.7,4.7,0,0,0,3.06,0,4.63,4.63,0,0,0,2.4-1.41A2.09,2.09,0,0,0,454.05,682.19Z"/><path class="cls-5" d="M471.24,671.88l-9.13,3.29-1.23-3.4,9.12-3.3Z"/><path class="cls-5" d="M491.7,673.84a7.1,7.1,0,0,1-1.22-1.51,6.94,6.94,0,0,1-3.93,4.13,7,7,0,0,1-5.2.37,5.54,5.54,0,0,1-3.43-3.14,5.7,5.7,0,0,1,.24-5.45c1-1.68,2.86-3.09,5.56-4.26l2.53-1.09-.52-1.21a3.56,3.56,0,0,0-1.78-1.94,3.49,3.49,0,0,0-2.8.19,4,4,0,0,0-2,1.7,2.38,2.38,0,0,0-.13,2.18l-4.13,1.78a5,5,0,0,1-.21-3.26,7.28,7.28,0,0,1,1.83-3.23,10.33,10.33,0,0,1,3.52-2.41,8.48,8.48,0,0,1,5.84-.6,6.31,6.31,0,0,1,3.94,3.71l3.57,8.28a10.27,10.27,0,0,0,2.4,3.66l.13.28Zm-5.81-1a5.2,5.2,0,0,0,2-1.59,4.28,4.28,0,0,0,.93-2.29l-1.49-3.47-2.23,1a6.63,6.63,0,0,0-3.1,2.29,2.8,2.8,0,0,0-.18,2.75,2.64,2.64,0,0,0,1.61,1.55A3.3,3.3,0,0,0,485.89,672.83Z"/><path class="cls-5" d="M505.54,656.44l-8.66,4.38-1.63-3.24,8.66-4.37Z"/><path class="cls-5" d="M524.84,648.59a3.24,3.24,0,0,0-2.46-1.72,14.93,14.93,0,0,0-4.86.61,21.68,21.68,0,0,1-5.57.75q-4.33-.12-6.23-3.33a6.55,6.55,0,0,1-.43-6,10.71,10.71,0,0,1,4.86-5.31A11.64,11.64,0,0,1,515,632a8.24,8.24,0,0,1,4.47.78,7.61,7.61,0,0,1,3.24,3l-4,2.36a4.23,4.23,0,0,0-2.82-2.17,5.5,5.5,0,0,0-3.86.89,5.75,5.75,0,0,0-2.57,2.66,3.27,3.27,0,0,0,.3,3,3,3,0,0,0,2.43,1.44,15.87,15.87,0,0,0,4.86-.64,20.65,20.65,0,0,1,5.43-.73,8.06,8.06,0,0,1,3.79.94,7.22,7.22,0,0,1,2.6,2.66,6.4,6.4,0,0,1,.5,5.92,11.19,11.19,0,0,1-5,5.27,13.3,13.3,0,0,1-5.18,1.79,8.91,8.91,0,0,1-4.79-.64,7.37,7.37,0,0,1-3.42-3.13l4-2.37a4.36,4.36,0,0,0,3.11,2.28,6.6,6.6,0,0,0,4.38-1.12,5.76,5.76,0,0,0,2.66-2.71A3.2,3.2,0,0,0,524.84,648.59Z"/><path class="cls-5" d="M545.69,643.57a9.27,9.27,0,0,1-7.21,1.76A9.78,9.78,0,0,1,532.2,641l-.32-.46a12,12,0,0,1-2.12-5,8.89,8.89,0,0,1,.56-4.87,8.55,8.55,0,0,1,3.07-3.74,7.81,7.81,0,0,1,6.66-1.48q3.32.86,6.05,4.77l1,1.48-10.71,7.49a6,6,0,0,0,3.6,2.26,5,5,0,0,0,3.82-.91,6.08,6.08,0,0,0,2.69-4.92l3.31.5a8.07,8.07,0,0,1-1,4.12A10.11,10.11,0,0,1,545.69,643.57Zm-10.25-13.74a3.81,3.81,0,0,0-1.71,2.77,6.71,6.71,0,0,0,.88,3.79l7-4.91-.19-.27a5.41,5.41,0,0,0-2.94-2.1A3.74,3.74,0,0,0,535.44,629.83Z"/><path class="cls-5" d="M555.45,615.74a11.21,11.21,0,0,0-1.52,1,4.13,4.13,0,0,0-1.79,4.44l8.51,10.71-3.51,2.79-12.45-15.65,3.36-2.67,1.48,1.68a5.06,5.06,0,0,1,1.91-4.85,4.07,4.07,0,0,1,1.4-.78Z"/><path class="cls-5" d="M571.48,615.31l-6.4-13.48,3.45-3.09,8.2,19.51-2.91,2.6-18.55-10.22,3.47-3.11Z"/><path class="cls-5" d="M568,591.82a2.45,2.45,0,0,1-.75-1.68,2.49,2.49,0,0,1,.85-1.81,2.52,2.52,0,0,1,1.82-.84,2.34,2.34,0,0,1,1.68.74,2.3,2.3,0,0,1,.72,1.67,2.95,2.95,0,0,1-2.66,2.66A2.34,2.34,0,0,1,568,591.82ZM589.2,606.3,586,609.47,571.91,595.3l3.18-3.17Z"/><path class="cls-5" d="M597.71,592.57a4.09,4.09,0,0,0,1.14-2.73,3.35,3.35,0,0,0-1-2.5l2.83-3.15a6.6,6.6,0,0,1,1.81,3.2,7.64,7.64,0,0,1-.07,3.91,8.82,8.82,0,0,1-2,3.62,8.51,8.51,0,0,1-6.47,3.13,10.77,10.77,0,0,1-7.22-3.19l-.34-.31a10.6,10.6,0,0,1-3.81-6.7,8.44,8.44,0,0,1,2.41-6.78,8.2,8.2,0,0,1,5.44-2.93,7.39,7.39,0,0,1,5.63,1.9l-2.83,3.14a4.09,4.09,0,0,0-2.88-1,3.83,3.83,0,0,0-2.7,1.34,4,4,0,0,0-1.08,3.56,8.07,8.07,0,0,0,2.77,4.1l.53.49a8.19,8.19,0,0,0,4.39,2.37A4,4,0,0,0,597.71,592.57Z"/><path class="cls-5" d="M615.52,576.78a9.3,9.3,0,0,1-6.37,3.81,9.75,9.75,0,0,1-7.29-2.3l-.44-.34a12,12,0,0,1-3.51-4.19A8.81,8.81,0,0,1,597,569a8.55,8.55,0,0,1,1.82-4.49,7.83,7.83,0,0,1,5.93-3.38q3.42-.17,7.19,2.76l1.43,1.11-8,10.32a6,6,0,0,0,4.1,1.1,4.93,4.93,0,0,0,3.38-2,6.09,6.09,0,0,0,1.12-5.5l3.31-.49a8.18,8.18,0,0,1,.23,4.23A10.12,10.12,0,0,1,615.52,576.78Zm-13.86-10.09a3.75,3.75,0,0,0-.81,3.15,6.63,6.63,0,0,0,1.95,3.36l5.25-6.76-.26-.21a5.5,5.5,0,0,0-3.43-1.14A3.74,3.74,0,0,0,601.66,566.69Z"/><path class="cls-5" d="M160.15,149.75l4.37,5.14c-1.93,1.63-3.87,3.32-5.73,5l-4.5-5c1.94-1.76,3.92-3.48,5.88-5.16Zm405.2,4.95c1.92,1.73,3.84,3.5,5.76,5.27l-4.63,4.91c-1.83-1.72-3.71-3.46-5.61-5.16Zm-421,9.46,4.72,4.84c-1.8,1.77-3.61,3.59-5.38,5.4l-4.79-4.69c1.76-1.88,3.61-3.74,5.45-5.54Zm436.44,5.37c1.79,1.84,3.6,3.75,5.36,5.66l-4.95,4.58c-1.73-1.87-3.49-3.73-5.24-5.54ZM129.58,179.7l5,4.48c-1.69,1.92-3.37,3.84-5,5.76l-5.16-4.35C126.13,183.61,127.86,181.62,129.58,179.7Zm465.61,5.72c1.68,1.94,3.35,4,5,6l-5.26,4.23c-1.58-1.94-3.2-3.95-4.8-5.89ZM115.91,196.2l5.34,4.13c-1.54,2-3.09,4-4.59,6.1l-5.45-4c1.54-2.11,3.12-4.2,4.7-6.25Zm492.53,6c1.54,2.08,3.06,4.21,4.53,6.33l-5.54,3.83c-1.44-2.07-2.94-4.15-4.42-6.19Zm-505,11.38,5.58,3.74c-1.42,2.11-2.82,4.27-4.16,6.4l-5.7-3.59c1.39-2.19,2.82-4.39,4.26-6.56Zm517.1,6.3c1.37,2.19,2.74,4.41,4.07,6.63l-5.8,3.46c-1.29-2.17-2.63-4.35-4-6.48Zm-528.37,12L98,235.22c-1.26,2.21-2.5,4.45-3.7,6.73l-5.94-3.18c1.2-2.34,2.47-4.64,3.76-6.9Zm539.16,6.52c1.22,2.28,2.44,4.6,3.59,6.88l-6,3.05c-1.13-2.24-2.32-4.51-3.52-6.76ZM82.18,250.89l6.08,2.92c-1.1,2.29-2.19,4.62-3.23,6.93L78.88,258c1-2.37,2.15-4.75,3.28-7.09Zm558.59,6.66c1.06,2.34,2.11,4.73,3.11,7.12l-6.21,2.62c-1-2.33-2-4.67-3-7Zm-567.23,13L79.83,273c-1,2.38-1.86,4.81-2.73,7.15l-6.33-2.33c.86-2.42,1.8-4.88,2.76-7.3Zm575.3,6.76c.9,2.45,1.78,4.92,2.61,7.35l-6.39,2.18c-.8-2.38-1.66-4.83-2.55-7.18ZM66.26,290.78l6.43,2c-.77,2.42-1.52,4.87-2.22,7.3L64,298.24c.77-2.48,1.54-5,2.27-7.46Zm589.3,6.88c.72,2.48,1.42,5,2.08,7.51l-6.51,1.73c-.65-2.45-1.34-4.92-2-7.34Zm-595,13.75,6.58,1.6c-.6,2.46-1.17,5-1.7,7.43L58.83,319c.51-2.52,1.1-5.07,1.71-7.6Zm600.35,7c.56,2.54,1.07,5.12,1.56,7.64l-6.62,1.27c-.47-2.48-1-5-1.53-7.47Zm3.82,21.1c.38,2.55.72,5.16,1,7.71l-6.7.8c-.3-2.52-.64-5.06-1-7.56Zm-9.6,105.19,6.6,1.34c-.51,2.53-1.07,5.09-1.65,7.61l-6.57-1.51c.57-2.43,1.12-4.93,1.62-7.4ZM64.6,444.35c.5,2.47,1,5,1.6,7.45l-6.57,1.51c-.58-2.53-1.13-5.1-1.64-7.62Zm585.61,20.76,6.49,1.8c-.68,2.48-1.42,5-2.18,7.49l-6.45-2c.75-2.45,1.46-4.91,2.14-7.33Zm-580.7-.38c.67,2.44,1.38,4.9,2.12,7.32l-6.46,2c-.75-2.48-1.48-5-2.17-7.48Zm574.36,20.39,6.36,2.26c-.87,2.44-1.78,4.9-2.71,7.33l-6.29-2.42c.9-2.38,1.8-4.76,2.64-7.17Zm-568.08-.4c.85,2.38,1.74,4.83,2.64,7.15l-6.3,2.41c-1-2.41-1.83-4.82-2.7-7.31Zm560.36,19.9,6.18,2.7c-1,2.37-2.12,4.81-3.22,7.12l-6.1-2.86c1.07-2.26,2.13-4.6,3.14-6.92Zm-552.69-.48c1,2.31,2,4.64,3.11,6.94l-6.11,2.86c-1.09-2.35-2.17-4.73-3.19-7.09ZM627,523.59l6,3.13c-1.2,2.3-2.45,4.61-3.71,6.88l-5.89-3.28C624.68,528.1,625.91,525.84,627,523.59Zm-534.62-.51c1.16,2.24,2.37,4.49,3.59,6.71l-5.9,3.26c-1.26-2.26-2.49-4.57-3.67-6.85Zm524.26,18.78,5.76,3.53c-1.36,2.2-2.75,4.42-4.17,6.59l-5.66-3.68c1.42-2.12,2.78-4.3,4.12-6.45Zm-514-.59c1.31,2.15,2.68,4.32,4.06,6.43l-5.66,3.68c-1.41-2.18-2.81-4.39-4.15-6.59Z"/><path class="cls-6" d="M360.21,737.82A358,358,0,0,1,168.39,682,355.91,355.91,0,0,1,157.85,88.62a356,356,0,1,1,404,586.27,354.79,354.79,0,0,1-201.66,62.93ZM159.47,91l1.63,2.35A350.29,350.29,0,1,0,558.63,670.19,350.29,350.29,0,1,0,161.1,93.32Z"/><circle class="cls-5" cx="134.65" cy="108.17" r="8.65" transform="translate(-37.05 126.9) rotate(-45)"/><path class="cls-6" d="M134.65,118.86a10.69,10.69,0,1,1,7.56-3.13A10.69,10.69,0,0,1,134.65,118.86Zm0-17.3a6.61,6.61,0,1,0,4.68,1.94A6.59,6.59,0,0,0,134.65,101.56Z"/><circle class="cls-7" cx="291.59" cy="8.65" r="8.65" transform="translate(79.29 208.72) rotate(-45)"/><circle class="cls-8" cx="696.65" cy="562.67" r="8.65"/><circle class="cls-5" cx="364.28" cy="735.42" r="10.09"/><path class="cls-6" d="M364.28,747.55a12,12,0,0,1-8.57-3.56h0a12.11,12.11,0,1,1,8.57,3.56Zm0-20.18a8,8,0,0,0-5.69,13.74h0a8,8,0,1,0,5.69-13.74Z"/><circle class="cls-5" cx="10.68" cy="434.55" r="8.65" transform="translate(-304.15 134.83) rotate(-45)"/><path class="cls-6" d="M10.69,445.24a10.69,10.69,0,1,1,7.55-3.13A10.63,10.63,0,0,1,10.69,445.24Zm0-17.29a6.61,6.61,0,1,0,4.67,1.93A6.58,6.58,0,0,0,10.69,428Z"/><circle class="cls-5" cx="693.94" cy="266.16" r="7.93" transform="translate(15.05 568.65) rotate(-45)"/><path class="cls-6" d="M693.94,276.12a10,10,0,0,1-7.05-2.91h0a10,10,0,1,1,7.05,2.91Zm-4.16-5.8a5.89,5.89,0,1,0,0-8.33,5.89,5.89,0,0,0,0,8.33Z"/><circle class="cls-9" cx="360.9" cy="383.57" r="81.54"/><path class="cls-10" d="M326.3,390.46a3.22,3.22,0,0,0-1.25-2.72,16.82,16.82,0,0,0-4.51-2,31.65,31.65,0,0,1-5.15-2.07q-5.19-2.81-5.18-7.54a7.31,7.31,0,0,1,1.39-4.39,9,9,0,0,1,4-3,14.94,14.94,0,0,1,5.84-1.09,13.6,13.6,0,0,1,5.8,1.18,9.26,9.26,0,0,1,3.95,3.33,8.69,8.69,0,0,1,1.41,4.88h-6.26a4.1,4.1,0,0,0-1.31-3.24,5.38,5.38,0,0,0-3.7-1.16,5.76,5.76,0,0,0-3.57,1,3.06,3.06,0,0,0-1.27,2.56,3,3,0,0,0,1.49,2.48,17,17,0,0,0,4.4,1.88q5.34,1.61,7.78,4a7.93,7.93,0,0,1,2.44,5.93,7.32,7.32,0,0,1-3,6.19,13.11,13.11,0,0,1-8,2.24,15.6,15.6,0,0,1-6.38-1.28,10.16,10.16,0,0,1-4.4-3.52,9,9,0,0,1-1.51-5.17h6.28c0,3.35,2,5,6,5a5.91,5.91,0,0,0,3.49-.91A3,3,0,0,0,326.3,390.46Z"/><path class="cls-11" d="M354,392.17H343l-2.09,6.26h-6.66l11.31-30.38h5.8l11.38,30.38h-6.66Zm-9.28-5.07h7.59l-3.82-11.37Z"/><path class="cls-12" d="M381.33,390.46a3.19,3.19,0,0,0-1.25-2.72,16.67,16.67,0,0,0-4.51-2,32,32,0,0,1-5.15-2.07q-5.18-2.81-5.18-7.54a7.38,7.38,0,0,1,1.39-4.39,9,9,0,0,1,4-3,14.85,14.85,0,0,1,5.83-1.09,13.6,13.6,0,0,1,5.8,1.18,9.29,9.29,0,0,1,4,3.33,8.69,8.69,0,0,1,1.41,4.88h-6.27a4.07,4.07,0,0,0-1.31-3.24,5.37,5.37,0,0,0-3.69-1.16,5.76,5.76,0,0,0-3.57,1,3.07,3.07,0,0,0-1.28,2.56,2.94,2.94,0,0,0,1.5,2.48,16.93,16.93,0,0,0,4.39,1.88c3.56,1.07,6.16,2.4,7.78,4a7.94,7.94,0,0,1,2.45,5.93,7.32,7.32,0,0,1-3,6.19,13.1,13.1,0,0,1-8,2.24,15.62,15.62,0,0,1-6.39-1.28,10.13,10.13,0,0,1-4.39-3.52,9,9,0,0,1-1.52-5.17h6.29q0,5,6,5a5.85,5.85,0,0,0,3.48-.91A3,3,0,0,0,381.33,390.46Z"/><path class="cls-13" d="M410.13,385.27h-12v8.13h14.11v5H391.85V368.05h20.33v5.07H398.11v7.24h12Z"/><path class="cls-5" d="M218,225.63h-2.81L208,214.17v11.46h-2.8V209.48H208l7.22,11.5v-11.5H218Z"/><path class="cls-5" d="M226,225.85a5.57,5.57,0,0,1-4.15-1.62,5.83,5.83,0,0,1-1.59-4.29v-.34a7.27,7.27,0,0,1,.69-3.21,5.28,5.28,0,0,1,1.95-2.2,5.17,5.17,0,0,1,2.79-.78,4.71,4.71,0,0,1,3.79,1.56,6.61,6.61,0,0,1,1.34,4.42v1.09H223a3.6,3.6,0,0,0,1,2.35,3,3,0,0,0,2.19.87,3.66,3.66,0,0,0,3-1.5l1.45,1.38a4.75,4.75,0,0,1-1.93,1.67A6,6,0,0,1,226,225.85Zm-.32-10.28a2.29,2.29,0,0,0-1.79.77,4.11,4.11,0,0,0-.87,2.17h5.14v-.2a3.22,3.22,0,0,0-.73-2.05A2.25,2.25,0,0,0,225.67,215.57Z"/><path class="cls-5" d="M235.93,210.71v2.92h2.12v2h-2.12v6.7a1.47,1.47,0,0,0,.27,1,1.27,1.27,0,0,0,1,.31,4.38,4.38,0,0,0,.94-.11v2.08a6.72,6.72,0,0,1-1.78.26q-3.1,0-3.1-3.43v-6.8h-2v-2h2v-2.92Z"/><path class="cls-5" d="M250.31,221.91l1.9-8.28h2.63l-3.27,12h-2.22l-2.57-8.24-2.53,8.24H242l-3.29-12h2.63l1.94,8.19,2.46-8.19h2Z"/><path class="cls-5" d="M255.8,219.52a7,7,0,0,1,.7-3.18,5.13,5.13,0,0,1,2-2.18,5.58,5.58,0,0,1,2.91-.75,5.24,5.24,0,0,1,3.94,1.56,6.12,6.12,0,0,1,1.63,4.15l0,.63a7.07,7.07,0,0,1-.69,3.17,5,5,0,0,1-1.95,2.16,5.54,5.54,0,0,1-2.93.77,5.25,5.25,0,0,1-4.07-1.69,6.51,6.51,0,0,1-1.52-4.51Zm2.69.23a4.85,4.85,0,0,0,.77,2.9,2.49,2.49,0,0,0,2.13,1,2.45,2.45,0,0,0,2.12-1.07,5.31,5.31,0,0,0,.76-3.11,4.79,4.79,0,0,0-.78-2.89,2.64,2.64,0,0,0-4.22,0A5.19,5.19,0,0,0,258.49,219.75Z"/><path class="cls-5" d="M275.18,216.09a6.62,6.62,0,0,0-1.1-.09,2.47,2.47,0,0,0-2.5,1.42v8.21h-2.69v-12h2.57l.07,1.34a3,3,0,0,1,2.7-1.56,2.61,2.61,0,0,1,1,.15Z"/><path class="cls-5" d="M280.44,220.48l-1.2,1.23v3.92h-2.7v-17h2.7v9.83l.84-1.06,3.32-3.73h3.23l-4.45,5,4.93,7H284Z"/><path class="cls-5" d="M288.06,210.51a1.44,1.44,0,0,1,.39-1,1.5,1.5,0,0,1,1.13-.41,1.54,1.54,0,0,1,1.13.41,1.44,1.44,0,0,1,.4,1,1.42,1.42,0,0,1-.4,1,1.53,1.53,0,0,1-1.13.4,1.5,1.5,0,0,1-1.13-.4A1.41,1.41,0,0,1,288.06,210.51Zm2.86,15.12h-2.7v-12h2.7Z"/><path class="cls-5" d="M296,213.63l.08,1.38a4.31,4.31,0,0,1,3.49-1.6q3.75,0,3.82,4.29v7.93h-2.7v-7.78a2.47,2.47,0,0,0-.49-1.69,2.06,2.06,0,0,0-1.61-.55,2.59,2.59,0,0,0-2.43,1.48v8.54h-2.7v-12Z"/><path class="cls-5" d="M305.33,219.54a7.07,7.07,0,0,1,1.31-4.47,4.23,4.23,0,0,1,3.49-1.66,3.94,3.94,0,0,1,3.23,1.43l.12-1.21h2.43v11.63a4.85,4.85,0,0,1-1.47,3.73,5.59,5.59,0,0,1-4,1.36,6.33,6.33,0,0,1-2.58-.55,4.59,4.59,0,0,1-1.92-1.44l1.28-1.61a3.86,3.86,0,0,0,3.06,1.47,3,3,0,0,0,2.12-.73,2.75,2.75,0,0,0,.77-2.13v-.81a4,4,0,0,1-3.1,1.3,4.19,4.19,0,0,1-3.44-1.68A7.17,7.17,0,0,1,305.33,219.54Zm2.68.23a4.81,4.81,0,0,0,.74,2.84,2.35,2.35,0,0,0,2.05,1,2.57,2.57,0,0,0,2.41-1.4V217a2.55,2.55,0,0,0-2.39-1.37,2.37,2.37,0,0,0-2.07,1.06A5.39,5.39,0,0,0,308,219.77Z"/><path class="cls-5" d="M329.6,222.11l4.1-12.63h3.09L331,225.63h-2.71l-5.79-16.15h3.07Z"/><path class="cls-5" d="M342.8,225.85a5.55,5.55,0,0,1-4.15-1.62,5.79,5.79,0,0,1-1.6-4.29v-.34a7.27,7.27,0,0,1,.7-3.21,5.33,5.33,0,0,1,1.94-2.2,5.21,5.21,0,0,1,2.8-.78,4.74,4.74,0,0,1,3.79,1.56,6.61,6.61,0,0,1,1.33,4.42v1.09h-7.84a3.6,3.6,0,0,0,1,2.35,3,3,0,0,0,2.19.87,3.65,3.65,0,0,0,3-1.5l1.45,1.38a4.79,4.79,0,0,1-1.92,1.67A6,6,0,0,1,342.8,225.85Zm-.32-10.28a2.28,2.28,0,0,0-1.79.77,4,4,0,0,0-.87,2.17H345v-.2a3.28,3.28,0,0,0-.72-2.05A2.26,2.26,0,0,0,342.48,215.57Z"/><path class="cls-5" d="M351.86,213.63l.08,1.38a4.31,4.31,0,0,1,3.49-1.6q3.75,0,3.82,4.29v7.93h-2.7v-7.78a2.47,2.47,0,0,0-.49-1.69,2.06,2.06,0,0,0-1.61-.55,2.59,2.59,0,0,0-2.43,1.48v8.54h-2.7v-12Z"/><path class="cls-5" d="M361.15,219.54a7.22,7.22,0,0,1,1.28-4.46,4.15,4.15,0,0,1,3.45-1.67,3.9,3.9,0,0,1,3.08,1.33v-6.15h2.7v17h-2.44l-.13-1.25a4,4,0,0,1-3.23,1.47,4.11,4.11,0,0,1-3.41-1.7A7.38,7.38,0,0,1,361.15,219.54Zm2.69.23a5,5,0,0,0,.71,2.86,2.28,2.28,0,0,0,2,1,2.53,2.53,0,0,0,2.41-1.47v-5.13a2.5,2.5,0,0,0-2.39-1.44,2.31,2.31,0,0,0-2,1A5.58,5.58,0,0,0,363.84,219.77Z"/><path class="cls-5" d="M373.63,219.52a7.14,7.14,0,0,1,.69-3.18,5.15,5.15,0,0,1,2-2.18,5.57,5.57,0,0,1,2.9-.75,5.23,5.23,0,0,1,3.94,1.56,6.13,6.13,0,0,1,1.64,4.15v.63a7.2,7.2,0,0,1-.68,3.17,5.11,5.11,0,0,1-2,2.16,5.61,5.61,0,0,1-2.94.77,5.23,5.23,0,0,1-4.06-1.69,6.46,6.46,0,0,1-1.52-4.51Zm2.69.23a4.85,4.85,0,0,0,.77,2.9,2.66,2.66,0,0,0,4.25,0,5.38,5.38,0,0,0,.76-3.11,4.79,4.79,0,0,0-.78-2.89,2.51,2.51,0,0,0-2.13-1.06,2.45,2.45,0,0,0-2.09,1.05A5.19,5.19,0,0,0,376.32,219.75Z"/><path class="cls-5" d="M393,216.09a6.53,6.53,0,0,0-1.1-.09,2.46,2.46,0,0,0-2.49,1.42v8.21h-2.7v-12h2.58l.06,1.34a3,3,0,0,1,2.71-1.56,2.59,2.59,0,0,1,.95.15Z"/><path class="cls-5" d="M401.09,222.37a1.22,1.22,0,0,0-.59-1.1,6.39,6.39,0,0,0-2-.67,9.9,9.9,0,0,1-2.3-.73,3.07,3.07,0,0,1-2-2.83,3.19,3.19,0,0,1,1.31-2.59,5.14,5.14,0,0,1,3.33-1,5.41,5.41,0,0,1,3.48,1.06,3.38,3.38,0,0,1,1.32,2.76H401a1.67,1.67,0,0,0-.58-1.29,2.23,2.23,0,0,0-1.53-.52,2.44,2.44,0,0,0-1.45.41,1.31,1.31,0,0,0-.56,1.1,1.11,1.11,0,0,0,.52,1,7.1,7.1,0,0,0,2.11.69,9.86,9.86,0,0,1,2.49.83,3.52,3.52,0,0,1,1.34,1.16,3,3,0,0,1,.44,1.64,3.13,3.13,0,0,1-1.34,2.62,5.74,5.74,0,0,1-3.52,1,6.15,6.15,0,0,1-2.63-.54,4.33,4.33,0,0,1-1.79-1.46,3.46,3.46,0,0,1-.65-2h2.62a1.91,1.91,0,0,0,.72,1.47,2.78,2.78,0,0,0,1.77.52,2.67,2.67,0,0,0,1.61-.41A1.25,1.25,0,0,0,401.09,222.37Z"/><path class="cls-5" d="M416.5,217.08a2.33,2.33,0,0,1,.67-1.73,2.4,2.4,0,0,1,1.78-.67,2.29,2.29,0,0,1,2.47,2.43v.41a2.31,2.31,0,0,1-.66,1.7,2.78,2.78,0,0,1-3.57,0,2.3,2.3,0,0,1-.69-1.67Z"/><path class="cls-5" d="M443.29,221.47a1.94,1.94,0,0,0-.75-1.64,8.82,8.82,0,0,0-2.7-1.17,13,13,0,0,1-3.1-1.31,4.14,4.14,0,0,1-2.21-3.61,3.94,3.94,0,0,1,1.59-3.22,6.46,6.46,0,0,1,4.13-1.26,6.89,6.89,0,0,1,3,.62,4.85,4.85,0,0,1,2.07,1.77,4.53,4.53,0,0,1,.75,2.54h-2.79a2.53,2.53,0,0,0-.79-2,3.32,3.32,0,0,0-2.27-.71,3.38,3.38,0,0,0-2.14.59,2,2,0,0,0-.76,1.64,1.78,1.78,0,0,0,.83,1.48,9.34,9.34,0,0,0,2.7,1.15,12.13,12.13,0,0,1,3,1.28,4.69,4.69,0,0,1,1.67,1.64,4.2,4.2,0,0,1,.54,2.16,3.87,3.87,0,0,1-1.55,3.22,6.74,6.74,0,0,1-4.2,1.19,7.92,7.92,0,0,1-3.22-.65,5.36,5.36,0,0,1-2.28-1.79,4.42,4.42,0,0,1-.82-2.66h2.81a2.62,2.62,0,0,0,.91,2.13,4,4,0,0,0,2.6.75,3.48,3.48,0,0,0,2.2-.59A1.93,1.93,0,0,0,443.29,221.47Z"/><path class="cls-5" d="M448.22,225.63V209.48H453a7.51,7.51,0,0,1,3.79,1,6.53,6.53,0,0,1,2.57,2.71,8.55,8.55,0,0,1,.91,4V218a8.56,8.56,0,0,1-.91,4,6.42,6.42,0,0,1-2.61,2.68,7.83,7.83,0,0,1-3.88.95Zm2.8-13.89v11.65h1.83a4.2,4.2,0,0,0,3.39-1.39,6,6,0,0,0,1.2-4v-.9a6.16,6.16,0,0,0-1.14-4,4,4,0,0,0-3.31-1.39Z"/><path class="cls-5" d="M467.68,219.85h-5.82v-2.18h5.82Z"/><path class="cls-5" d="M482.49,221.63,485,209.48h2.79L484,225.63h-2.68l-3.07-11.79-3.14,11.79h-2.7l-3.72-16.15h2.78L474,221.61l3.08-12.13h2.35Z"/><path class="cls-5" d="M498,221.87h-6.26l-1.3,3.76h-2.92l6.1-16.15h2.52l6.11,16.15h-2.93Zm-5.47-2.27h4.68l-2.34-6.69Z"/><path class="cls-5" d="M516.57,225.63h-2.8l-7.2-11.46v11.46h-2.81V209.48h2.81l7.22,11.5v-11.5h2.78Z"/><path class="cls-5" d="M275.86,260.11a5.79,5.79,0,0,1-1.91,4,6.47,6.47,0,0,1-4.42,1.45,6.29,6.29,0,0,1-3.4-.91,6,6,0,0,1-2.27-2.6,9.42,9.42,0,0,1-.83-3.92v-1.51a9.43,9.43,0,0,1,.81-4,6.12,6.12,0,0,1,2.32-2.69,6.57,6.57,0,0,1,3.5-.94,6.2,6.2,0,0,1,4.3,1.45,6,6,0,0,1,1.9,4.1h-2.8a4,4,0,0,0-1-2.52,3.37,3.37,0,0,0-2.39-.77,3.27,3.27,0,0,0-2.81,1.34,6.68,6.68,0,0,0-1,3.93V258a7.1,7.1,0,0,0,.94,4,3.12,3.12,0,0,0,2.75,1.38,3.64,3.64,0,0,0,2.48-.74,3.87,3.87,0,0,0,1.05-2.48Z"/><path class="cls-5" d="M278,265.37V249.22h4.77a7.45,7.45,0,0,1,3.8,1,6.56,6.56,0,0,1,2.57,2.7,8.69,8.69,0,0,1,.91,4v.81a8.53,8.53,0,0,1-.92,4,6.45,6.45,0,0,1-2.61,2.69,7.76,7.76,0,0,1-3.87.94Zm2.81-13.88v11.64h1.83a4.22,4.22,0,0,0,3.39-1.38,6.08,6.08,0,0,0,1.2-4v-.89a6.19,6.19,0,0,0-1.14-4,4.06,4.06,0,0,0-3.32-1.38Z"/><path class="cls-5" d="M305.33,265.37h-2.81l-7.19-11.46v11.46h-2.81V249.22h2.81l7.21,11.5v-11.5h2.79Z"/><path class="cls-5" d="M318.8,256.82a2.31,2.31,0,0,1,.67-1.72,2.4,2.4,0,0,1,1.78-.68,2.44,2.44,0,0,1,1.81.68,2.38,2.38,0,0,1,.66,1.75v.41a2.31,2.31,0,0,1-.66,1.71,2.43,2.43,0,0,1-1.8.66,2.5,2.5,0,0,1-1.77-.64,2.24,2.24,0,0,1-.69-1.67Z"/><path class="cls-5" d="M340,259.38v6h-2.81V249.22h6.18a6.23,6.23,0,0,1,4.29,1.41,4.75,4.75,0,0,1,1.59,3.73,4.57,4.57,0,0,1-1.55,3.7,6.57,6.57,0,0,1-4.37,1.32Zm0-2.26h3.37a3.36,3.36,0,0,0,2.28-.7,2.58,2.58,0,0,0,.79-2,2.8,2.8,0,0,0-.8-2.09,3.05,3.05,0,0,0-2.2-.8H340Z"/><path class="cls-5" d="M357.35,255.83a6.71,6.71,0,0,0-1.1-.09,2.48,2.48,0,0,0-2.5,1.42v8.21h-2.69v-12h2.57l.07,1.34a3,3,0,0,1,2.7-1.56,2.61,2.61,0,0,1,1,.15Z"/><path class="cls-5" d="M358.71,250.25a1.42,1.42,0,0,1,.4-1,1.48,1.48,0,0,1,1.12-.41,1.5,1.5,0,0,1,1.13.41,1.42,1.42,0,0,1,.4,1,1.38,1.38,0,0,1-.4,1,1.5,1.5,0,0,1-1.13.4,1.48,1.48,0,0,1-1.12-.4A1.38,1.38,0,0,1,358.71,250.25Zm2.86,15.12h-2.69v-12h2.69Z"/><path class="cls-5" d="M368.4,262l2.54-8.58h2.78l-4.16,12h-2.34l-4.19-12h2.79Z"/><path class="cls-5" d="M382.06,265.37a4.13,4.13,0,0,1-.31-1.12,4.54,4.54,0,0,1-6.1.31,3.31,3.31,0,0,1-1.14-2.55,3.4,3.4,0,0,1,1.43-2.94,6.84,6.84,0,0,1,4.07-1h1.65v-.79a1.88,1.88,0,0,0-2.1-2.05,2.34,2.34,0,0,0-1.51.46,1.44,1.44,0,0,0-.59,1.17h-2.69a3,3,0,0,1,.65-1.85,4.35,4.35,0,0,1,1.78-1.34,6.18,6.18,0,0,1,2.51-.49,5,5,0,0,1,3.36,1.06,3.75,3.75,0,0,1,1.29,3v5.41a6.16,6.16,0,0,0,.45,2.58v.19Zm-3-1.94a3.05,3.05,0,0,0,1.5-.39,2.59,2.59,0,0,0,1.06-1v-2.26h-1.45a3.94,3.94,0,0,0-2.25.52,1.68,1.68,0,0,0-.75,1.47,1.59,1.59,0,0,0,.51,1.24A2,2,0,0,0,379.1,263.43Z"/><path class="cls-5" d="M390.22,250.45v2.92h2.11v2h-2.11v6.69a1.51,1.51,0,0,0,.27,1,1.26,1.26,0,0,0,1,.3,3.83,3.83,0,0,0,.94-.11v2.09a6.57,6.57,0,0,1-1.77.25q-3.11,0-3.11-3.42v-6.8h-2v-2h2v-2.92Z"/><path class="cls-5" d="M399.33,265.59a5.6,5.6,0,0,1-4.15-1.61,5.87,5.87,0,0,1-1.59-4.3v-.33a7.21,7.21,0,0,1,.69-3.21,5.29,5.29,0,0,1,2-2.2,5.09,5.09,0,0,1,2.79-.79,4.71,4.71,0,0,1,3.79,1.56,6.64,6.64,0,0,1,1.34,4.43v1.08h-7.84a3.63,3.63,0,0,0,1,2.36,3,3,0,0,0,2.19.86,3.66,3.66,0,0,0,3-1.5l1.45,1.39A4.83,4.83,0,0,1,402,265,6.08,6.08,0,0,1,399.33,265.59ZM399,255.31a2.27,2.27,0,0,0-1.79.78,4.11,4.11,0,0,0-.87,2.16h5.14v-.2a3.32,3.32,0,0,0-.72-2.05A2.28,2.28,0,0,0,399,255.31Z"/><path class="cls-5" d="M424.14,261.38l2.48-12.16h2.78l-3.72,16.15H423l-3.07-11.79-3.14,11.79h-2.69l-3.73-16.15h2.79l2.5,12.14,3.09-12.14h2.35Z"/><path class="cls-5" d="M439.68,261.61h-6.26l-1.31,3.76H429.2l6.1-16.15h2.51l6.11,16.15H441Zm-5.47-2.26h4.68l-2.34-6.7Z"/><path class="cls-5" d="M458.22,265.37h-2.81l-7.19-11.46v11.46h-2.81V249.22h2.81l7.22,11.5v-11.5h2.78Z"/><path class="cls-5" d="M256.12,515.65h-6.5v6.84h-2.8V506.34h10.25v2.26h-7.45v4.81h6.5Z"/><path class="cls-5" d="M271.61,518.5l2.49-12.16h2.78l-3.72,16.15h-2.69L267.4,510.7l-3.14,11.79h-2.69l-3.73-16.15h2.79l2.5,12.13,3.08-12.13h2.35Z"/><path class="cls-5" d="M285.14,522.49a3.79,3.79,0,0,1-.31-1.12,4.54,4.54,0,0,1-6.1.31,3.32,3.32,0,0,1-1.15-2.55,3.43,3.43,0,0,1,1.43-3,6.93,6.93,0,0,1,4.07-1h1.66v-.79a2.13,2.13,0,0,0-.52-1.49,2.09,2.09,0,0,0-1.59-.56,2.36,2.36,0,0,0-1.51.46,1.44,1.44,0,0,0-.59,1.17h-2.69a3,3,0,0,1,.65-1.85,4.35,4.35,0,0,1,1.78-1.34,6.19,6.19,0,0,1,2.52-.49,5,5,0,0,1,3.36,1.06,3.77,3.77,0,0,1,1.28,3v5.42a6,6,0,0,0,.46,2.58v.19Zm-3-1.94a3.05,3.05,0,0,0,1.5-.39,2.65,2.65,0,0,0,1.06-1v-2.26h-1.46a4,4,0,0,0-2.25.52,1.68,1.68,0,0,0-.75,1.47,1.59,1.59,0,0,0,.51,1.24A2,2,0,0,0,282.18,520.55Z"/><path class="cls-5" d="M297.08,522.49a4.13,4.13,0,0,1-.31-1.12,4.54,4.54,0,0,1-6.1.31,3.31,3.31,0,0,1-1.14-2.55,3.43,3.43,0,0,1,1.43-3,6.91,6.91,0,0,1,4.07-1h1.65v-.79a1.88,1.88,0,0,0-2.1-2,2.34,2.34,0,0,0-1.51.46,1.44,1.44,0,0,0-.59,1.17h-2.69a3,3,0,0,1,.65-1.85,4.35,4.35,0,0,1,1.78-1.34,6.18,6.18,0,0,1,2.51-.49,5,5,0,0,1,3.36,1.06,3.75,3.75,0,0,1,1.29,3v5.42a6.16,6.16,0,0,0,.45,2.58v.19Zm-3-1.94a3.05,3.05,0,0,0,1.5-.39,2.59,2.59,0,0,0,1.06-1v-2.26h-1.45a3.94,3.94,0,0,0-2.25.52,1.68,1.68,0,0,0-.75,1.47,1.59,1.59,0,0,0,.51,1.24A2,2,0,0,0,294.12,520.55Z"/><path class="cls-5" d="M310.56,518.33a1.94,1.94,0,0,0-.75-1.64,9.08,9.08,0,0,0-2.7-1.17,12.83,12.83,0,0,1-3.1-1.3,4.14,4.14,0,0,1-2.21-3.62,3.92,3.92,0,0,1,1.59-3.21,6.4,6.4,0,0,1,4.13-1.27,7.07,7.07,0,0,1,3,.62,5,5,0,0,1,2.07,1.77,4.56,4.56,0,0,1,.75,2.55h-2.79a2.54,2.54,0,0,0-.79-2,3.27,3.27,0,0,0-2.27-.72,3.45,3.45,0,0,0-2.14.59,2,2,0,0,0-.76,1.64,1.79,1.79,0,0,0,.82,1.48,9.28,9.28,0,0,0,2.71,1.15,12.52,12.52,0,0,1,3,1.28,4.77,4.77,0,0,1,1.67,1.64,4.23,4.23,0,0,1,.53,2.17,3.85,3.85,0,0,1-1.54,3.21,6.74,6.74,0,0,1-4.2,1.19,7.92,7.92,0,0,1-3.22-.65,5.46,5.46,0,0,1-2.29-1.79,4.48,4.48,0,0,1-.81-2.66h2.8a2.62,2.62,0,0,0,.91,2.13,4,4,0,0,0,2.61.75,3.48,3.48,0,0,0,2.2-.59A1.93,1.93,0,0,0,310.56,518.33Z"/><path class="cls-5" d="M326,513.94a2.38,2.38,0,0,1,.67-1.73,2.47,2.47,0,0,1,4.26,1.76v.41a2.27,2.27,0,0,1-.66,1.7,2.79,2.79,0,0,1-3.57,0,2.29,2.29,0,0,1-.7-1.67Z"/><path class="cls-5" d="M356.65,517.23a5.82,5.82,0,0,1-1.9,4,6.5,6.5,0,0,1-4.43,1.45,6.29,6.29,0,0,1-3.4-.91,6.08,6.08,0,0,1-2.27-2.6,9.42,9.42,0,0,1-.83-3.92v-1.51a9.43,9.43,0,0,1,.81-4,6.14,6.14,0,0,1,2.33-2.69,6.51,6.51,0,0,1,3.49-.94,6.23,6.23,0,0,1,4.31,1.45,6,6,0,0,1,1.89,4.1h-2.79a4,4,0,0,0-1-2.52,3.37,3.37,0,0,0-2.39-.77,3.29,3.29,0,0,0-2.81,1.34,6.67,6.67,0,0,0-1,3.92v1.44a7,7,0,0,0,.94,4,3.1,3.1,0,0,0,2.74,1.38,3.64,3.64,0,0,0,2.48-.74,3.87,3.87,0,0,0,1.06-2.48Z"/><path class="cls-5" d="M367.86,518.73H361.6l-1.31,3.76h-2.91l6.1-16.15H366l6.11,16.15h-2.92Zm-5.47-2.26h4.68l-2.34-6.7Z"/><path class="cls-5" d="M382,518.33a1.94,1.94,0,0,0-.75-1.64,9.08,9.08,0,0,0-2.7-1.17,13,13,0,0,1-3.1-1.3,4.16,4.16,0,0,1-2.21-3.62,3.92,3.92,0,0,1,1.59-3.21,6.4,6.4,0,0,1,4.13-1.27,7,7,0,0,1,3,.62,5,5,0,0,1,2.07,1.77,4.57,4.57,0,0,1,.76,2.55H382a2.5,2.5,0,0,0-.79-2,3.27,3.27,0,0,0-2.27-.72,3.4,3.4,0,0,0-2.13.59,2,2,0,0,0-.76,1.64,1.77,1.77,0,0,0,.82,1.48,9.2,9.2,0,0,0,2.7,1.15,12.52,12.52,0,0,1,3,1.28,4.77,4.77,0,0,1,1.67,1.64,4.24,4.24,0,0,1,.54,2.17,3.86,3.86,0,0,1-1.55,3.21,6.74,6.74,0,0,1-4.2,1.19,7.92,7.92,0,0,1-3.22-.65,5.36,5.36,0,0,1-2.28-1.79,4.42,4.42,0,0,1-.82-2.66h2.81a2.59,2.59,0,0,0,.91,2.13,4,4,0,0,0,2.6.75,3.48,3.48,0,0,0,2.2-.59A1.9,1.9,0,0,0,382,518.33Z"/><path class="cls-5" d="M387,522.49V506.34h5.53a6.75,6.75,0,0,1,4.17,1.1,3.87,3.87,0,0,1,1.43,3.27,3.49,3.49,0,0,1-.6,2,3.81,3.81,0,0,1-1.75,1.37,3.58,3.58,0,0,1,2,1.34,3.87,3.87,0,0,1,.72,2.36,4.3,4.3,0,0,1-1.46,3.49,6.34,6.34,0,0,1-4.17,1.22Zm2.8-9.35h2.75a3.21,3.21,0,0,0,2.05-.59,2.4,2.4,0,0,0,.06-3.41,3.44,3.44,0,0,0-2.13-.54h-2.73Zm0,2.06v5h3.12a3,3,0,0,0,2.06-.66,2.27,2.27,0,0,0,.75-1.81,2.31,2.31,0,0,0-2.58-2.58Z"/><path class="cls-5" d="M411.44,513.94a2.34,2.34,0,0,1,.67-1.73,2.46,2.46,0,0,1,4.25,1.76v.41a2.27,2.27,0,0,1-.66,1.7,2.43,2.43,0,0,1-1.8.66,2.49,2.49,0,0,1-1.77-.63,2.32,2.32,0,0,1-.69-1.67Z"/><path class="cls-5" d="M438.23,518.33a1.94,1.94,0,0,0-.75-1.64,9.08,9.08,0,0,0-2.7-1.17,13,13,0,0,1-3.1-1.3,4.16,4.16,0,0,1-2.21-3.62,3.92,3.92,0,0,1,1.59-3.21,6.4,6.4,0,0,1,4.13-1.27,7,7,0,0,1,3,.62,5,5,0,0,1,2.07,1.77,4.56,4.56,0,0,1,.75,2.55h-2.79a2.5,2.5,0,0,0-.79-2,3.27,3.27,0,0,0-2.27-.72A3.45,3.45,0,0,0,433,509a2,2,0,0,0-.76,1.64,1.78,1.78,0,0,0,.83,1.48,9.07,9.07,0,0,0,2.7,1.15,12.52,12.52,0,0,1,3,1.28,4.77,4.77,0,0,1,1.67,1.64,4.24,4.24,0,0,1,.54,2.17,3.86,3.86,0,0,1-1.55,3.21,6.74,6.74,0,0,1-4.2,1.19,7.92,7.92,0,0,1-3.22-.65,5.36,5.36,0,0,1-2.28-1.79,4.42,4.42,0,0,1-.82-2.66h2.81a2.59,2.59,0,0,0,.91,2.13,4,4,0,0,0,2.6.75,3.48,3.48,0,0,0,2.2-.59A1.93,1.93,0,0,0,438.23,518.33Z"/><path class="cls-5" d="M455.82,518.5l2.49-12.16h2.78l-3.73,16.15h-2.68l-3.07-11.79-3.14,11.79h-2.7l-3.72-16.15h2.78l2.51,12.13,3.08-12.13h2.35Z"/><path class="cls-5" d="M475.17,520.39a5.34,5.34,0,0,1-2.42,1.73,10,10,0,0,1-3.53.59,7,7,0,0,1-3.59-.92,6,6,0,0,1-2.41-2.63,9.31,9.31,0,0,1-.89-4v-1.27a8.53,8.53,0,0,1,1.76-5.71,6.06,6.06,0,0,1,4.89-2.06,6.45,6.45,0,0,1,4.28,1.34,5.76,5.76,0,0,1,1.9,3.84h-2.75a3.09,3.09,0,0,0-3.38-2.92,3.31,3.31,0,0,0-2.86,1.36,6.85,6.85,0,0,0-1,4V515a6.58,6.58,0,0,0,1.1,4.06,3.64,3.64,0,0,0,3.07,1.45,4,4,0,0,0,3.06-1v-3.16h-3.33v-2.12h6.12Z"/><path class="cls-5" d="M297.35,562.23V546.09h4.77a7.42,7.42,0,0,1,3.8.95,6.53,6.53,0,0,1,2.57,2.71,8.62,8.62,0,0,1,.91,4v.81a8.57,8.57,0,0,1-.92,4,6.46,6.46,0,0,1-2.6,2.68,7.82,7.82,0,0,1-3.88.94Zm2.81-13.88V560H302a4.22,4.22,0,0,0,3.39-1.38,6,6,0,0,0,1.2-4v-.9a6.21,6.21,0,0,0-1.14-4,4.06,4.06,0,0,0-3.32-1.38Z"/><path class="cls-5" d="M324.66,562.23h-2.81l-7.19-11.45v11.45h-2.81V546.09h2.81l7.22,11.5v-11.5h2.78Z"/><path class="cls-5" d="M336.07,558.07a2,2,0,0,0-.75-1.64,8.87,8.87,0,0,0-2.7-1.16,13,13,0,0,1-3.1-1.31,4.14,4.14,0,0,1-2.21-3.61,3.93,3.93,0,0,1,1.59-3.22,6.46,6.46,0,0,1,4.13-1.27,6.9,6.9,0,0,1,3,.63,4.85,4.85,0,0,1,2.07,1.77,4.46,4.46,0,0,1,.76,2.54h-2.8a2.53,2.53,0,0,0-.79-2,3.26,3.26,0,0,0-2.27-.72,3.42,3.42,0,0,0-2.13.59,2,2,0,0,0-.76,1.64,1.74,1.74,0,0,0,.82,1.48,9.57,9.57,0,0,0,2.7,1.16,12.54,12.54,0,0,1,3,1.27,5,5,0,0,1,1.68,1.64,4.33,4.33,0,0,1,.53,2.17,3.84,3.84,0,0,1-1.55,3.21,6.68,6.68,0,0,1-4.2,1.19,8,8,0,0,1-3.22-.64,5.44,5.44,0,0,1-2.28-1.79,4.45,4.45,0,0,1-.82-2.67h2.81a2.59,2.59,0,0,0,.91,2.13,3.92,3.92,0,0,0,2.6.76,3.47,3.47,0,0,0,2.21-.6A1.89,1.89,0,0,0,336.07,558.07Z"/><path class="cls-5" d="M351.5,553.68a2.32,2.32,0,0,1,.67-1.72,2.46,2.46,0,0,1,4.25,1.76v.41a2.31,2.31,0,0,1-.66,1.7,2.78,2.78,0,0,1-3.57,0,2.23,2.23,0,0,1-.69-1.67Z"/><path class="cls-5" d="M372.49,560h8.62v2.24h-12v-1.82l8.35-12.06h-8.29v-2.26h11.7v1.77Z"/><path class="cls-5" d="M394.84,548.35h-5v13.88H387V548.35h-5v-2.26h12.8Z"/><path class="cls-5" d="M409.43,562.23h-2.81l-7.19-11.45v11.45h-2.81V546.09h2.81l7.22,11.5v-11.5h2.78Z"/><path class="cls-5" d="M421.64,558.47h-6.25l-1.31,3.76h-2.92l6.1-16.14h2.52l6.11,16.14H423Zm-5.46-2.26h4.68l-2.34-6.7Z"/></g></g></svg>